# xmcd
#
# Track frame offsets:
#	150
#	26748
#	44225
#	65641
#	88155
#	117945
#	133571
#	151185
#	170279
#	186485
#	206020
#	226613
#	251010
#	274224
#	289131
#	305938
#	326741
#
# Disc length: 4712 seconds
#
# Revision: 0
# Processed by: cddbd v1.4PL0 Copyright (c) Steve Scherf et al.
# Submitted via: dBpowerAMP V4.0
#
DISCID=07126611
DTITLE=STING - Music Heritage
DYEAR=2002
DGENRE=Ballad
TTITLE0=A thousand years
TTITLE1=Mad about you
TTITLE2=Desert rose
TTITLE3=It's probably me
TTITLE4=Let your soul be your pilot
TTITLE5=Love is the seventh wave
TTITLE6=Moon over Bourbon Street
TTITLE7=Windmills of your mind
TTITLE8=Fields of gold
TTITLE9=Englishman in New York
TTITLE10=Shape of my heart
TTITLE11=The hounds of winter
TTITLE12=La belle dame Sans Regrets
TTITLE13=Fragile
TTITLE14=Ain't no sunshine
TTITLE15=Tomorrow we'll see
TTITLE16=Brand new day
EXTD=Music Heritage\ncompilatie 2002 de Quatro si EMI Electrola
EXTT0=
EXTT1=
EXTT2=
EXTT3=
EXTT4=
EXTT5=
EXTT6=
EXTT7=
EXTT8=
EXTT9=
EXTT10=
EXTT11=
EXTT12=
EXTT13=
EXTT14=
EXTT15=
EXTT16=
PLAYORDER=
